<?xml version="1.0" encoding="UTF-8"?> <!-- Generator: Adobe Illustrator 23.0.4, SVG Export Plug-In . SVG Version: 6.00 Build 0) --> <svg xmlns="http://www.w3.org/2000/svg" xmlns:xlink="http://www.w3.org/1999/xlink" id="Layer_1" x="0px" y="0px" viewBox="0 0 452 52" style="enable-background:new 0 0 452 52;" xml:space="preserve"> <style type="text/css"> .st0{fill:#ED8B05;} .st1{fill:#FFFFFF;} </style> <g> <g> <path class="st0" d="M363.26,19.69c-0.55,0.13-1.25,0.1-1.5-0.26c-0.22-0.29-0.18-0.78-0.59-0.86c0.44-0.12,0.98-0.07,1.41,0.03 c0.15,0.04,0.42,0.08,0.51,0.17C363.24,18.94,363.16,19.5,363.26,19.69 M365.9,20.39c-0.22,0.04-0.34,0.14-0.54,0.26 c-0.08,0.06-0.22,0.19-0.33,0.19c-0.18-0.01-0.38-0.29-0.48-0.42c-0.14-0.2-0.27-0.38-0.4-0.51c-0.06-0.06-0.27-0.21-0.28-0.28 c-0.03-0.16,0.19-0.24,0.16-0.38c0.37,0.22,0.84,0.23,1.16,0.44c0.14,0.09,0.25,0.21,0.38,0.32 C365.71,20.13,365.85,20.21,365.9,20.39 M368.76,22.01c-0.04,0.51-0.31,0.51-0.8,0.44c-0.43-0.07-0.94-0.18-1.4-0.25v-0.31 c0.05-0.03,0.17-0.01,0.24-0.02c0.08-0.2,0.11-0.45,0.15-0.67c0.05-0.22,0.08-0.46,0.16-0.65 C368.05,20.38,368.81,21.17,368.76,22.01 M380.91,38.61c-0.6,0.52-1.22,1.04-1.84,1.54c-0.15,0.43-0.26,0.91-0.38,1.28 c-0.04,0.11-0.08,0.27-0.14,0.35c-0.07,0.16-0.28,0.34-0.41,0.47c-0.32,0.29-0.56,0.52-0.88,0.85c-0.15,0.15-0.31,0.35-0.46,0.43 c-0.18,0.08-0.43,0.09-0.64,0.14c-0.21,0.03-0.43,0.09-0.63,0.15c-0.29,0.85-0.55,1.64-0.89,2.41c-0.35,0.12-0.68,0.1-1.01,0.21 c-0.22,0.06-0.43,0.24-0.64,0.35c-0.19,0.12-0.42,0.27-0.65,0.34c-0.22,0.08-0.48,0.09-0.7,0.12c-0.24,0.05-0.47,0.07-0.73,0.11 c-0.08,0.18-0.1,0.39-0.15,0.6c-0.59,0.07-1.19,0.16-1.81,0.19c-0.02,0.35,0,0.78-0.01,1.17c-0.15,0.02-0.3,0.11-0.42,0.11 c0.02,0.18,0.23,0.29,0.12,0.56c-0.2,0.05-0.32,0.16-0.51,0.2c-0.09,0.07-0.09,0.21-0.22,0.24c0.09,0.03-0.17-0.04-0.2,0.02h0.06 c0.02,0.04-0.14,0-0.2,0c-0.09,0-0.2,0.04-0.34,0.02c0,0.02,0.02,0.02,0.04,0.02c0.02,0,0.03,0,0.05,0c-0.01,0-0.03,0-0.05,0 c-0.43,0.04-0.69-0.16-1.07-0.29c0.02-0.12,0.03-0.23,0.03-0.36c-0.27-0.11-0.61-0.16-0.92-0.24c0.04-0.12,0.08-0.26,0.11-0.4 c0.03-0.14,0.13-0.31,0.11-0.4c-0.03-0.11-0.27-0.24-0.36-0.29c-0.14-0.1-0.27-0.17-0.36-0.27c0.03-0.96,0-1.98,0.05-3 c0.01-0.36,0.08-0.8,0.01-1.1c-0.04-0.2-0.26-0.42-0.37-0.57c-0.13-0.22-0.25-0.38-0.36-0.57c0.31-0.47,0.67-0.9,0.99-1.39 c0.1-0.13,0.3-0.32,0.32-0.44c0.07-0.32-0.05-0.58,0-0.94c-1.59-1-3.29-1.91-4.83-2.96c0.07-0.68,0.17-1.38,0.26-2.07 c-0.5-0.21-1.05-0.36-1.56-0.55c-0.29-0.43-0.55-0.89-0.83-1.35c-0.03-0.44,0.12-0.74,0.21-1.1c0.2-0.74,0.44-1.49,0.66-2.22 c0.83-0.77,1.72-1.46,2.56-2.21c-0.27-0.64-0.4-1.27-0.69-1.87c-0.11-0.19-0.3-0.39-0.44-0.58c-0.46-0.59-0.9-1.21-1.36-1.77 c-0.21-0.11-0.53-0.07-0.77-0.18c-0.09-0.04-0.22-0.21-0.32-0.31c-0.11-0.1-0.22-0.21-0.31-0.3c-0.2-0.21-0.4-0.48-0.61-0.62 c-0.2-0.14-0.48-0.23-0.71-0.35c-0.57-0.3-1.13-0.6-1.75-0.92c-0.11-0.07-0.23-0.15-0.32-0.18c-0.4-0.07-0.87,0-1.29,0h-1.28 c-0.24-0.63-0.48-1.31-0.72-2c-0.08-0.22-0.22-0.47-0.24-0.67c-0.02-0.18,0.05-0.4,0.09-0.59c0.1-0.54,0.21-1.11,0.33-1.66 c-0.06-0.28-0.29-0.47-0.36-0.79c-0.02-0.18,0.02-0.44,0.04-0.67c0.05-0.63,0.15-1.41,0.09-2.02c-0.17-0.01-0.11,0.08-0.17,0.19 c-0.06,0-0.11,0.01-0.18,0.03c-0.26,0.63-0.47,1.27-0.71,1.91c-0.22,0.64-0.45,1.31-0.6,2.01c-0.06,0.03-0.18,0-0.23,0.05 c-0.04-0.26-0.09-0.48-0.16-0.74c-0.05-0.14-0.18-0.29-0.18-0.42c-0.01-0.14,0.21-0.51,0.28-0.64c0.12-0.2,0.24-0.42,0.3-0.6 c0.21-0.61,0.3-1.25,0.48-1.88c-0.19-0.12-0.46-0.2-0.68-0.3c0.31-0.63,0.39-1.53,0.84-2.06c0.08-0.11,0.26-0.2,0.42-0.31 c0.96-0.72,1.9-1.54,2.79-2.33c1.07-0.93,2.13-1.76,2.9-2.91c-0.3-0.01-0.56,0.16-0.95,0.14c-0.32-0.04-0.5-0.2-0.73-0.19 c-0.06,0-0.25,0.03-0.39,0.06c-0.05,0-0.05,0,0,0.01c-0.19,0.04-0.48,0.12-0.68,0.25c0.02-0.02,0.02-0.03,0.02-0.03 c0,0-0.03,0.03-0.06,0.05c0,0.01-0.02,0.01-0.03,0.02c0.01,0,0.02-0.01,0.03-0.02c0-0.01,0.01-0.01-0.01-0.02 c-0.22,0.17-0.57,0.25-0.77,0.38h-0.03c-0.12,0.07-0.3,0.12-0.34,0.16c0.08-0.04-0.02,0.05-0.06,0c-0.07,0.03-0.14,0.07-0.22,0.13 c0-0.02,0.04-0.03,0.02-0.04c-0.27,0.17-0.34,0.14-0.55,0.32c-0.03-0.07-0.04,0-0.12,0.02c-0.08-0.02-0.16,0.15-0.15,0.07 c-0.15,0.11-0.27,0.12-0.32,0.22c-0.12,0-0.1,0.07-0.17,0.04c-0.18,0.19-0.66,0.49-1.14,0.81c0.37-0.35,0.83-0.63,1.2-0.9 c0.4-0.43,1.03-0.68,1.55-1.03c0.06-0.04,0.13-0.07,0.19-0.13c0.1-0.08,0.29-0.15,0.47-0.24c1.02-0.52,2.15-1.01,3.3-1.36 c0.4-0.05,0.82-0.32,1.19-0.13c0.66-0.04,1.39-0.4,2.13-0.48c0.18-0.05,0.41-0.05,0.63,0.02c0.25,0.07,0.42,0.16,0.62,0.18 c0.25,0.02,0.49,0,0.77-0.05c0.24-0.02,0.42-0.12,0.63-0.2c0.29-0.08,0.64-0.08,1-0.09c0.3-0.02,0.68-0.04,0.94,0.03 c0.29,0.11,0.48,0.42,0.74,0.47c0.45,0.08,1.05-0.07,1.44,0.04c0.12,0.03,0.19,0.11,0.31,0.15c0.39,0.17,0.92,0.22,1.44,0.26 c1.01,0.11,2.04,0.22,2.93,0.45c0.24,0.06,0.44,0.13,0.57,0.26c0.17,0.13,0.32,0.33,0.46,0.38c0.25,0.06,0.57-0.07,0.77-0.19 c-0.01-0.37-0.36-0.41-0.43-0.73c0.23-0.04,0.38,0.13,0.54,0.24c0.46,0.33,0.9,0.72,1.27,1.11c0.56,0.15,1.08,0.37,1.63,0.53 c-0.12,0.04-0.09,0.1-0.12,0.17c-0.53,0-0.85-0.21-1.23-0.29c-0.27-0.1-0.58-0.21-0.88-0.31c-0.38-0.11-0.87-0.25-1.2-0.24 c-0.09,0.01,0,0.21-0.09,0.24c-0.39,0.07-0.69-0.16-1.02-0.15c-0.11,0.15-0.13,0.35-0.27,0.46c-0.27,0.21-0.71,0.17-1.03,0.33 c-0.25,0.16-0.54,0.35-0.56,0.81c-0.01,0.88,0.91,1.43,1.59,1.67c0.27,0.09,0.6,0.21,0.85,0.22c0.25,0,0.56-0.1,0.81-0.14 c0.95-0.2,1.49-0.69,1.61-1.69c0.4,0.08,0.77,0.21,1.17,0.3c0.01-0.03-0.08-0.19-0.03-0.29c0.16-0.08,0.28-0.02,0.38,0.02 c0.39,0.18,0.69,0.61,1.05,0.93c0.41,0.39,0.84,0.57,1.47,0.79c0.17,0.05,0.38,0.12,0.52,0.18c0.11,0.07,0.26,0.27,0.42,0.39 c-0.05,0.04-0.11-0.03-0.16-0.03c-0.12,0.1-0.18,0.19-0.15,0.4c0.02,0.42,0.43,0.8,0.64,1.09c0.28,0.07,0.53,0.17,0.81,0.23 c0.05,0.12,0.04,0.28,0.11,0.36c-0.54,0.09-0.24,0.86-0.56,1.11c-0.2,0.19-0.84,0.16-1.09,0c-0.19-0.07-0.42-0.42-0.59-0.59 c-0.54-0.54-1.4-1.21-2.32-1.21c-0.49,0-0.87,0.17-1.34,0.38c-0.01,0.17,0.19,0.17,0.3,0.18c0.94,0.15,1.99,0.46,2.3,1.23 c0.05,0.09,0.05,0.21,0.05,0.31c-0.53-0.07-1.04-0.14-1.55-0.18c-0.53-0.06-1.05-0.16-1.58-0.17c-0.85,0-1.49,0.55-2.19,0.73 c-0.27,0.07-0.54,0.11-0.8,0.17c-0.57,0.14-0.93,0.34-1.3,0.65c-0.17,0.17-0.34,0.35-0.45,0.52c-0.12,0.19-0.16,0.47-0.31,0.64 c-0.28,0.28-0.92,0.17-1.42,0.24c-0.28,0.04-0.47,0.28-0.69,0.27c-0.18-0.01-0.29-0.28-0.46-0.28c-0.12-0.01-0.27,0.15-0.36,0.21 c-0.58,0.38-1.21,0.5-1.17,1.53c0.01,0.3,0.13,0.59,0.13,0.83c-0.01,0.54-0.64,0.61-0.79,0.94c-0.65-0.06-0.56-0.86-0.6-1.58 c-0.05-0.58-0.05-1.31-0.42-1.51c-0.17-0.1-0.51-0.13-0.77-0.2c-0.92-0.22-1.92-0.41-3.04-0.35c-1.03,0.03-1.92,0.24-2.93,0.29 c-0.15,0.36-0.22,0.68-0.45,0.96c-0.36,0.43-0.99,0.49-1.37,0.9c-0.05,1.22,0.46,2.5,1.09,3.28c1.07,0.02,1.82-0.31,2.27-0.92 c0.28,0.03,0.51-0.02,0.78-0.01c-0.13,0.41-0.35,0.71-0.59,1.06c-0.1,0.13-0.3,0.35-0.31,0.48c-0.04,0.22,0.11,0.51,0.16,0.76 c0.04,0.28,0.07,0.53,0.15,0.79c0.7-0.01,1.37-0.04,2.09-0.02c0.07,0.75,0.05,1.51,0.11,2.22c1.25,0.3,2.51,0.58,3.78,0.86 c0.07-0.15,0.07-0.4,0.15-0.56c0.31,0.06,0.72,0,1.05,0.1c0.15,0.04,0.35,0.27,0.51,0.42c0.16,0.15,0.34,0.38,0.51,0.45 c0.19,0.07,0.49,0.07,0.72,0.09c0.78,0.11,1.47,0.2,2.25,0.29c0.18,0.26,0.34,0.52,0.51,0.77c0.22,0.06,0.42,0.13,0.64,0.2 c0.21,0.07,0.46,0.07,0.67,0.17c0.27,0.14,0.45,0.55,0.7,0.73c-0.18,0.41-0.4,0.79-0.6,1.18c0.27,0.28,0.61,0.51,0.96,0.76 c0.13,0.09,0.24,0.22,0.32,0.24c0.11,0.02,0.34,0,0.49-0.02c0.35-0.02,0.65-0.03,1.01-0.03c0.21,0.54,0.43,1.16,0.64,1.76 c0.07,0.21,0.2,0.45,0.2,0.62c0,0.21-0.12,0.45-0.21,0.66c-0.07,0.25-0.14,0.44-0.21,0.67c0.36-0.12,0.81-0.34,1.23-0.55 c0.11-0.04,0.31-0.15,0.4-0.16c0.13,0,0.33,0.16,0.43,0.22c0.16,0.09,0.27,0.18,0.42,0.25c0.12,0.23,0.13,0.56,0.26,0.78 c0.1,0.14,0.32,0.29,0.46,0.4c0.13,0.11,0.34,0.34,0.47,0.38c0.29,0.1,0.69-0.03,1.05,0.05c0.31,0.37,0.57,0.8,0.83,1.22 c0.35,0.07,0.69,0.19,1.03,0.26C381.23,37.25,381.07,37.93,380.91,38.61 M366.23,1.99c0.61-0.06,1.25-0.01,1.86,0.16 c0,0,0.04,0.01,0.06,0.02c0.4,0.17,0.83,0.31,1.29,0.39c0.68,0.12,1.25,0.16,1.72,0.44c-0.05,0.04-0.12,0.04-0.2,0.04 c0.03,0.04,0.02,0.03-0.01,0.03h-0.01h0.01c-0.01,0-0.02,0-0.03,0.01c0-0.01,0.01-0.01,0.02-0.01c-0.29,0.02-0.62-0.03-0.98,0.01 c0.14-0.08-0.11-0.01-0.21-0.01c-0.13-0.02-0.47-0.06-0.64-0.07c-0.14,0-0.21-0.08-0.38-0.03c0-0.03,0.04-0.01,0.04-0.05 c-0.13,0.02-0.2-0.03-0.31,0c0.02-0.01,0.02-0.01,0.02-0.03c-0.14-0.02-0.33-0.02-0.36-0.05c-0.3-0.07-0.72-0.07-0.87-0.33 c0.23,0,0.4,0,0.52-0.13c-0.02-0.1-0.15-0.09-0.23-0.08c0-0.01,0.01-0.01,0.04-0.01c-0.24-0.05-0.43,0-0.63,0 c0.23-0.06-0.29-0.04-0.39-0.04h-0.47C366.12,2.15,366.18,2.09,366.23,1.99 M373.01,3.07c-0.05,0-0.08,0-0.1-0.01 c0.01,0.01,0.02,0.02,0.02,0.04c-0.04-0.01-0.04-0.04-0.09-0.03v0.01c-0.1-0.02-0.22-0.07-0.32-0.09c0,0,0.01,0.01,0.01,0.01 c-0.04-0.03-0.13-0.07-0.18-0.06c-0.01-0.04-0.01-0.08-0.06-0.11C372.49,2.85,372.9,2.91,373.01,3.07 M373.96,3.62 c0,0.01-0.03,0.04-0.02,0.04c0.22,0.06,0.31,0.25,0.45,0.35c-0.08-0.01-0.17-0.02-0.25-0.06c-0.01,0-0.02-0.01-0.03-0.02 c0,0.01,0.01,0.02,0.02,0.02c-0.29-0.02-0.44-0.32-0.66-0.46C373.56,3.53,373.83,3.56,373.96,3.62 M375.28,3.98 c0,0.07,0.17,0.05,0.12,0.13c0.05,0,0.13-0.03,0.07,0.02c0.28,0.07,0.52,0.3,0.75,0.42c0.03,0,0.11-0.03,0.06,0.02 c0.05,0.01,0.14,0.03,0.13,0.07c0.09,0.01,0.16,0.06,0.18,0.13c0.4,0.15,0.64,0.39,0.99,0.56c0,0-0.02,0.01-0.02,0.04 c0.05-0.02,0.09-0.02,0.05,0.04c0.16,0.07,0.29,0.15,0.44,0.23c0,0-0.03,0.03-0.03,0.03c0.01,0.01,0.03,0.02,0.04,0.02 c0.06,0.04,0.21,0.16,0.21,0.14c0.03,0.03,0.09,0.02,0.06,0.07c0.06,0,0.09,0,0.06,0.03c0.13,0.03,0.24,0.15,0.27,0.19 c0.08-0.01,0.22,0.16,0.26,0.19c0.05,0.03,0.22,0.16,0.26,0.18c0.08,0.07,0.28,0.27,0.36,0.33c0.02,0.02,0.03,0.04,0.06,0.02 c0.15,0.22,0.43,0.42,0.63,0.69c-0.13,0.05-0.18,0.14-0.31,0.17c-0.33-0.24-0.6-0.52-0.95-0.78c0.03,0.17,0.21,0.34,0.24,0.56 c-0.39-0.16-0.83-0.27-1.36-0.38c-0.06-0.14-0.22-0.34-0.35-0.43c-0.09-0.07-0.38-0.34-0.36-0.46c0.02-0.2,0.29-0.17,0.29-0.38 c0-0.09-0.13-0.21-0.13-0.21c-0.12-0.11-0.18-0.16-0.32-0.26c-0.07-0.06-0.02-0.07-0.11-0.05c0-0.12-0.22-0.11-0.23-0.2 c-0.02,0.01-0.04,0.02-0.06,0.02c-0.02-0.02,0-0.03,0-0.05c-0.03,0.02-0.06,0.03-0.07-0.04C376.4,5,376.2,4.85,376.07,4.8 c0.09,0.05-0.03,0.06-0.01-0.02c-0.09,0.02-0.16-0.07-0.24-0.09c0,0.02-0.01,0.04-0.04-0.04c-0.05,0.04-0.25-0.11-0.36-0.17 c-0.03,0.07-0.07-0.03-0.17-0.06c0,0.01,0.01,0.01,0.01,0.01c-0.03-0.02-0.11-0.08-0.15-0.07c0,0,0,0.01,0,0.01 c-0.09-0.06-0.16-0.23-0.25-0.32C375.02,4,375.13,4.03,375.28,3.98 M388.94,24.44c-0.87-13.84-12.76-24.34-26.6-23.47 C348.51,1.82,338,13.74,338.86,27.58c0.85,13.81,12.77,24.33,26.59,23.46C379.28,50.17,389.79,38.26,388.94,24.44"></path> </g> <g> <path class="st1" d="M24.91,9.33L1,9.28v33.86h23.98c15.6,0,21.91-7.5,21.91-16.83v-0.1C46.89,16.87,40.51,9.33,24.91,9.33z M24.91,37.14L24.91,37.14l-15.31,0V15.37h15.31c9.87,0,13.31,4.89,13.31,10.88C38.22,32.25,34.78,37.14,24.91,37.14z"></path> <ellipse transform="matrix(0.3827 -0.9239 0.9239 0.3827 142.6388 291.8224)" class="st1" cx="289.69" cy="39.17" rx="5.11" ry="5.11"></ellipse> <path class="st1" d="M335.95,37.14h-17.89v0c-9.87,0-13.31-4.89-13.31-10.88c0-6,3.44-10.88,13.31-10.88h17.89V9.28l-17.89,0.05 c-15.6,0-21.98,7.55-21.98,16.88v0.1c0,9.34,6.31,16.83,21.91,16.83h17.96V37.14z"></path> <path class="st1" d="M282.31,21.66v-0.07c0-6.83-4.61-12.31-16.02-12.31h-27.86v33.86h8.6v-9.11l10.29-0.02l11.81,9.12h12.04 l-12.42-9.25C278.32,33.13,282.31,27.95,282.31,21.66z M265.93,27.93h-18.91v-12.6h18.91v0c5.72,0,7.71,2.83,7.71,6.3 S271.64,27.93,265.93,27.93z"></path> <polygon class="st1" points="442.37,9.28 442.37,9.28 434.94,9.28 418.32,32.55 401.7,9.28 394.28,9.28 394.28,43.14 402.17,43.14 402.17,21.44 418.32,44.28 434.48,21.44 434.48,43.14 442.37,43.14 442.37,9.28 "></polygon> <path class="st1" d="M60.9,29.23h32.52v-6.05H60.9v-3.62c0-2.59,2.58-4.24,5.01-4.24h27.51V9.28H65.34 c-7.21,0-13.04,4.27-13.04,9.71v14.43c0,5.44,5.82,9.71,13.04,9.71h28.08v-6.05H65.91c-2.43,0-5.01-1.65-5.01-4.24v-3.57V29.23z"></path> <path class="st1" d="M157.59,9.28v20v3.57c0,2.59,2.58,4.24,5.01,4.24h21.82v6.05h-22.39c-7.21,0-13.04-4.27-13.04-9.71V9.28 H157.59z"></path> <path class="st1" d="M201.61,15.32h27.51V9.28h-28.08c-7.21,0-13.04,4.27-13.04,9.71v14.43c0,5.44,5.82,9.71,13.04,9.71h28.08 v-6.05h-27.51c-2.43,0-5.01-1.65-5.01-4.24v-3.57v-0.05h32.52v-6.05H196.6v-3.62C196.6,16.98,199.18,15.32,201.61,15.32z"></path> <g> <polygon class="st1" points="122.32,8.13 97.57,43.14 106.7,43.14 122.32,20.86 137.94,43.14 147.08,43.14 "></polygon> <polygon class="st1" points="122.32,44.28 129.61,33.97 115.03,33.97 "></polygon> </g> <g> <g> <path class="st1" d="M447.7,14.71c-1.85,0-3.28-1.48-3.28-3.28s1.45-3.3,3.3-3.3c1.85,0,3.28,1.48,3.28,3.28 C451,13.21,449.55,14.71,447.7,14.71z M447.72,8.46c-1.68,0-2.95,1.34-2.95,2.97c0,1.64,1.26,2.95,2.94,2.95 c1.68,0,2.95-1.34,2.95-2.97C450.65,9.78,449.39,8.46,447.72,8.46z M448.45,11.75l0.93,1.3h-0.78l-0.84-1.19h-0.72v1.19h-0.65 V9.6h1.54c0.8,0,1.33,0.41,1.33,1.1C449.25,11.27,448.92,11.61,448.45,11.75z M447.89,10.19h-0.85v1.09h0.85 c0.43,0,0.68-0.21,0.68-0.55C448.57,10.39,448.32,10.19,447.89,10.19z"></path> </g> </g> </g> </g> </svg> 